<svg width="531" height="204" viewBox="0 0 531 204" fill="none" xmlns="http://www.w3.org/2000/svg">
<path d="M135.7 40.7002H40.0002V114.9C66.6002 114.9 88.1002 136.4 88.1002 163H135.7C135.7 129.8 118.7 100.4 92.9002 83.3002H135.7V40.8002V40.7002Z" fill="url(#paint0_linear_67_176952)"/>
<path d="M135.7 40.7002H40.0002V83.2002H135.7V40.7002Z" fill="url(#paint1_radial_67_176952)"/>
<path d="M197.9 139.9C199.7 140.3 201.5 140.7 203.2 141.2C204.9 141.6 206.5 142.2 208.1 142.8V146.3H176.5V142.8C178.3 142 179.9 141.4 181.5 141C183.1 140.6 184.7 140.2 186.3 139.9V68.7002C184.2 68.3002 182.4 67.8002 180.8 67.3002C179.2 66.8002 177.8 66.2002 176.5 65.7002V62.2002H187.1C190.3 62.2002 193.8 62.0002 197.6 61.7002C201.4 61.4002 205.1 61.2002 208.7 61.2002C212.3 61.2002 216.3 61.6002 219.7 62.5002C223.1 63.4002 226.1 64.8002 228.5 66.7002C231 68.6002 232.9 71.1002 234.3 74.0002C235.7 77.0002 236.4 80.5002 236.4 84.7002C236.4 88.9002 234.9 95.4002 231.8 99.2002C228.7 103 224.5 105.8 219.2 107.5C222.6 112.9 226.2 118.3 230 123.7C233.8 129.1 237.7 134.4 241.8 139.7L248.3 143.2V146.2H233.7L229.1 142.8C226.9 140 224.8 137.3 223 134.6C221.2 131.9 219.4 129.2 217.8 126.4C216.2 123.6 214.7 120.8 213.3 118C211.9 115.2 210.5 112.1 209 108.9H197.7V139.7L197.9 139.9ZM206 67.5002C204.1 67.5002 202.5 67.5002 201.3 67.6002C200.1 67.6002 198.9 67.8002 197.9 68.1002V103.7H206.5C212 103.7 216.4 102 219.6 98.5002C222.8 95.0002 224.5 90.4002 224.5 84.7002C224.5 79.0002 222.8 74.5002 219.3 71.7002C215.9 68.9002 211.4 67.5002 206 67.5002Z" fill="#191B20"/>
<path d="M297.7 137.9C297.1 139.3 296.1 140.5 294.7 141.7C293.3 142.9 291.8 143.9 290 144.8C288.2 145.7 286.3 146.4 284.2 146.9C282.1 147.4 280 147.7 277.8 147.7C273.1 147.7 268.9 147 265.3 145.5C261.7 144 258.7 141.9 256.3 139.1C253.9 136.3 252.1 133 250.8 129.2C249.6 125.4 248.9 121 248.9 116.2C248.9 106 251.3 98.1998 256 92.7998C260.7 87.3998 267.4 84.7998 276 84.7998C284.6 84.7998 281.6 85.1998 284.3 85.8998C287 86.6998 289.4 87.8998 291.6 89.6998C293.7 91.4998 295.4 93.7998 296.8 96.6998C298.1 99.5998 298.8 103.2 298.8 107.6C298.8 112 298.8 110.3 298.6 111.7C298.5 113.1 298.3 114.6 297.9 116.2H260.5C260.5 119.6 260.9 122.7 261.8 125.6C262.6 128.5 263.9 131.1 265.6 133.2C267.3 135.3 269.4 137.1 272 138.3C274.6 139.5 277.6 140.2 281 140.2C284.4 140.2 286.6 139.8 289.5 139C292.4 138.2 294.5 137.2 296 135.9L297.7 137.8V137.9ZM275.7 90.0998C271.1 90.0998 267.7 91.5998 265.3 94.6998C262.9 97.7998 261.5 103.2 261 111H287.4C287.4 110.3 287.5 109.6 287.6 108.9C287.6 108.2 287.6 107.6 287.6 106.9C287.6 101.8 286.6 97.6998 284.7 94.6998C282.8 91.6998 279.8 90.0998 275.7 90.0998Z" fill="#191B20"/>
<path d="M336 56C336.7 56 337.6 56 338.5 56.1C339.5 56.1 340.5 56.3 341.5 56.4C342.5 56.5 343.5 56.7 344.5 56.9C345.5 57.1 346.3 57.3 347 57.6C346.8 60.2 346.4 62.7 346 65C345.6 67.3 345 69.3 344.4 71.2H341.4L336.1 60.9C333.8 60.9 331.8 61.1 330.2 61.6C328.6 62.1 327.2 63 326.1 64.4C325 65.8 324.2 67.7 323.7 70.3C323.2 72.9 322.9 76.2 322.9 80.4V86.4H336.7V92.6H322.9V140.5C327.1 141 330.9 141.9 334.4 143.4V146.4H304.2V143.4C306.7 142 309.3 141 312.1 140.5V92.6H303V89.4C305.8 87.6 308.8 86.2 312.1 85.3V81.1C312.1 76.1 312.7 72 313.9 68.8C315.1 65.6 316.8 63 318.9 61.1C321.1 59.2 323.6 57.9 326.5 57.2C329.4 56.5 332.6 56.1 335.9 56.1L336 56Z" fill="#191B20"/>
<path d="M339.9 116.3C339.9 111.3 340.6 106.8 341.9 102.9C343.2 98.9999 345.1 95.6999 347.6 93.0999C350.1 90.3999 353.1 88.3999 356.5 86.9999C360 85.5999 363.8 84.8999 368.1 84.8999C372.4 84.8999 377.3 85.6999 380.9 87.1999C384.5 88.6999 387.4 90.8999 389.7 93.5999C392 96.3999 393.7 99.6999 394.7 103.5C395.7 107.3 396.3 111.6 396.3 116.3C396.3 126.4 393.7 134.1 388.6 139.6C383.5 145 376.6 147.8 368 147.8C359.4 147.8 359 147.1 355.5 145.6C352 144.1 349.1 142 346.7 139.2C344.4 136.4 342.6 133.1 341.5 129.2C340.3 125.3 339.8 121 339.8 116.3H339.9ZM351.4 116.3C351.4 119.9 351.7 123.3 352.4 126.5C353.1 129.7 354.2 132.5 355.6 134.8C357.1 137.2 359 139 361.4 140.4C363.8 141.8 366.7 142.4 370 142.4C373.3 142.4 377.9 140.3 380.6 136C383.4 131.8 384.7 125.2 384.7 116.2C384.7 107.2 384.4 109.1 383.7 105.9C383 102.7 382 99.9999 380.5 97.5999C379.1 95.1999 377.2 93.3999 375 91.9999C372.8 90.5999 370.1 89.9999 367 89.9999C362.3 89.9999 358.5 92.0999 355.6 96.3999C352.7 100.6 351.3 107.2 351.3 116.2L351.4 116.3Z" fill="#191B20"/>
<path d="M427.6 146.3H401V143.3C403.6 142 406.3 141.1 408.9 140.4V64.4L399.8 63.4V60.3C401.9 59.3 404.5 58.5 407.6 57.8C410.7 57.1 413.8 56.5 416.7 56H419.7V140.4C422.3 141 425 142 427.6 143.3V146.3Z" fill="#191B20"/>
<path d="M471.7 134.4C471.3 136.2 470.6 137.8 469.7 139.4C468.7 141 467.6 142.4 466.2 143.7C464.8 144.9 463.2 145.9 461.4 146.6C459.6 147.3 457.7 147.7 455.6 147.7C447.7 147.7 441.8 145.2 437.8 140.1C433.9 135.1 431.9 127.2 431.9 116.6C431.9 106 434.4 98.6 439.4 93.2C444.4 87.8 451.1 85.2 459.6 85.2C468.1 85.2 464.9 85.3 466.6 85.6C468.3 85.9 470.1 86.4 472.1 87.1V64.4L463 63.4V60.3C465.3 59.3 468 58.5 471.1 57.8C474.2 57.1 477.1 56.5 479.9 56H482.9V139.4L490.8 140.4V142.9C488.5 144 486.1 145 483.6 145.8C481.1 146.6 478.7 147.2 476.3 147.5H473.3L472.2 134.4H471.7ZM457.9 140.3C461.8 140.3 464.9 139.1 467.3 136.6C469.6 134.1 471.2 130.8 472.1 126.5V92.7C470.7 91.9 469.1 91.3 467.3 91C465.5 90.7 463.1 90.5 460.2 90.5C454.8 90.5 450.6 92.9 447.7 97.6C444.8 102.4 443.4 108.7 443.4 116.6C443.4 124.5 443.7 122.9 444.2 125.8C444.8 128.6 445.6 131.1 446.8 133.3C448 135.5 449.5 137.2 451.3 138.4C453.1 139.6 455.3 140.3 457.8 140.3H457.9Z" fill="#191B20"/>
<defs>
<linearGradient id="paint0_linear_67_176952" x1="46.0002" y1="79.4002" x2="136.2" y2="110.1" gradientUnits="userSpaceOnUse">
<stop stop-color="#000B1F"/>
<stop offset="0.5" stop-color="#0057FF"/>
<stop offset="1" stop-color="#04CFFF"/>
</linearGradient>
<radialGradient id="paint1_radial_67_176952" cx="0" cy="0" r="1" gradientUnits="userSpaceOnUse" gradientTransform="translate(-28.5035 45.5864) rotate(22.6) scale(143.55 161.81)">
<stop stop-color="#D8FF70"/>
<stop offset="0.5" stop-color="#04CFFF"/>
<stop offset="1" stop-color="#0057FF"/>
</radialGradient>
</defs>
</svg>
