<svg width="451" height="122" viewBox="0 0 451 122" fill="none" xmlns="http://www.w3.org/2000/svg">
<g clip-path="url(#clip0_1851_549080)">
<path d="M95.6998 -0.299805H0V73.9C26.6 73.9 48.1 95.4 48.1 122H95.6998C95.6998 88.8 78.6998 59.4 52.9 42.3002H95.6998V-0.199802V-0.299805Z" fill="url(#paint0_linear_1851_549080)"/>
<path d="M95.6998 -0.299805H0V42.2002H95.6998V-0.299805Z" fill="url(#paint1_radial_1851_549080)"/>
<path d="M157.9 98.9C159.7 99.3 161.5 99.7 163.2 100.2C164.9 100.6 166.5 101.2 168.1 101.8V105.3H136.5V101.8C138.3 101 139.9 100.4 141.5 100C143.1 99.6 144.7 99.2 146.3 98.9V27.7002C144.2 27.3002 142.4 26.8002 140.8 26.3002C139.2 25.8002 137.8 25.2002 136.5 24.7002V21.2002H147.1C150.3 21.2002 153.8 21.0002 157.6 20.7002C161.4 20.4002 165.1 20.2002 168.7 20.2002C172.3 20.2002 176.3 20.6002 179.7 21.5002C183.1 22.4002 186.1 23.8002 188.5 25.7002C191 27.6002 192.9 30.1002 194.3 33.0002C195.7 36.0002 196.4 39.5002 196.4 43.7002C196.4 47.9002 194.9 54.4002 191.8 58.2002C188.7 62 184.5 64.8 179.2 66.5C182.6 71.9 186.2 77.3 190 82.7C193.8 88.1 197.7 93.4 201.8 98.7L208.3 102.2V105.2H193.7L189.1 101.8C186.9 99 184.8 96.3 183 93.6C181.2 90.9 179.4 88.2 177.8 85.4C176.2 82.6 174.7 79.8 173.3 77C171.9 74.2 170.5 71.1 169 67.9H157.7V98.7L157.9 98.9ZM166 26.5002C164.1 26.5002 162.5 26.5002 161.3 26.6002C160.1 26.6002 158.9 26.8002 157.9 27.1002V62.7H166.5C172 62.7 176.4 61 179.6 57.5002C182.8 54.0002 184.5 49.4002 184.5 43.7002C184.5 38.0002 182.8 33.5002 179.3 30.7002C175.9 27.9002 171.4 26.5002 166 26.5002Z" fill="#191B20"/>
<path d="M257.7 96.9C257.1 98.3 256.1 99.5 254.7 100.7C253.3 101.9 251.8 102.9 250 103.8C248.2 104.7 246.3 105.4 244.2 105.9C242.1 106.4 240 106.7 237.8 106.7C233.1 106.7 228.9 106 225.3 104.5C221.7 103 218.7 100.9 216.3 98.1C213.9 95.3 212.1 92 210.8 88.2C209.6 84.4 208.9 80 208.9 75.2C208.9 65 211.3 57.1998 216 51.7998C220.7 46.3998 227.4 43.7998 236 43.7998C244.6 43.7998 241.6 44.1998 244.3 44.8998C247 45.6998 249.4 46.8998 251.6 48.6998C253.7 50.4998 255.4 52.7998 256.8 55.6998C258.1 58.5998 258.8 62.2 258.8 66.6C258.8 71 258.8 69.3 258.6 70.7C258.5 72.1 258.3 73.6 257.9 75.2H220.5C220.5 78.6 220.9 81.7 221.8 84.6C222.6 87.5 223.9 90.1 225.6 92.2C227.3 94.3 229.4 96.1 232 97.3C234.6 98.5 237.6 99.2 241 99.2C244.4 99.2 246.6 98.8 249.5 98C252.4 97.2 254.5 96.2 256 94.9L257.7 96.8V96.9ZM235.7 49.0998C231.1 49.0998 227.7 50.5998 225.3 53.6998C222.9 56.7998 221.5 62.2 221 70H247.4C247.4 69.3 247.5 68.6 247.6 67.9C247.6 67.2 247.6 66.6 247.6 65.9C247.6 60.8 246.6 56.6998 244.7 53.6998C242.8 50.6998 239.8 49.0998 235.7 49.0998Z" fill="#191B20"/>
<path d="M296 15C296.7 15 297.6 15 298.5 15.1C299.5 15.1 300.5 15.3 301.5 15.4C302.5 15.5 303.5 15.7 304.5 15.9C305.5 16.1 306.3 16.3 307 16.6C306.8 19.2 306.4 21.7 306 24C305.6 26.3 305 28.3 304.4 30.2H301.4L296.1 19.9C293.8 19.9 291.8 20.1 290.2 20.6C288.6 21.1 287.2 22 286.1 23.4C285 24.8 284.2 26.7 283.7 29.3C283.2 31.9 282.9 35.2 282.9 39.4V45.4H296.7V51.6H282.9V99.5C287.1 100 290.9 100.9 294.4 102.4V105.4H264.2V102.4C266.7 101 269.3 100 272.1 99.5V51.6H263V48.4C265.8 46.6 268.8 45.2 272.1 44.3V40.1C272.1 35.1 272.7 31 273.9 27.8C275.1 24.6 276.8 22 278.9 20.1C281.1 18.2 283.6 16.9 286.5 16.2C289.4 15.5 292.6 15.1 295.9 15.1L296 15Z" fill="#191B20"/>
<path d="M299.9 75.3C299.9 70.3 300.6 65.8 301.9 61.9C303.2 57.9999 305.1 54.6999 307.6 52.0999C310.1 49.3999 313.1 47.3999 316.5 45.9999C320 44.5999 323.8 43.8999 328.1 43.8999C332.4 43.8999 337.3 44.6999 340.9 46.1999C344.5 47.6999 347.4 49.8999 349.7 52.5999C352 55.3999 353.7 58.6999 354.7 62.5C355.7 66.3 356.3 70.6 356.3 75.3C356.3 85.4 353.7 93.1 348.6 98.6C343.5 104 336.6 106.8 328 106.8C319.4 106.8 319 106.1 315.5 104.6C312 103.1 309.1 101 306.7 98.2C304.4 95.4 302.6 92.1 301.5 88.2C300.3 84.3 299.8 80 299.8 75.3H299.9ZM311.4 75.3C311.4 78.9 311.7 82.3 312.4 85.5C313.1 88.7 314.2 91.5 315.6 93.8C317.1 96.2 319 98 321.4 99.4C323.8 100.8 326.7 101.4 330 101.4C333.3 101.4 337.9 99.3 340.6 95C343.4 90.8 344.7 84.2 344.7 75.2C344.7 66.2 344.4 68.1 343.7 64.9C343 61.7 342 58.9999 340.5 56.5999C339.1 54.1999 337.2 52.3999 335 50.9999C332.8 49.5999 330.1 48.9999 327 48.9999C322.3 48.9999 318.5 51.0999 315.6 55.3999C312.7 59.6 311.3 66.2 311.3 75.2L311.4 75.3Z" fill="#191B20"/>
<path d="M387.6 105.3H361V102.3C363.6 101 366.3 100.1 368.9 99.4V23.4L359.8 22.4V19.3C361.9 18.3 364.5 17.5 367.6 16.8C370.7 16.1 373.8 15.5 376.7 15H379.7V99.4C382.3 100 385 101 387.6 102.3V105.3Z" fill="#191B20"/>
<path d="M431.7 93.4C431.3 95.2 430.6 96.8 429.7 98.4C428.7 100 427.6 101.4 426.2 102.7C424.8 103.9 423.2 104.9 421.4 105.6C419.6 106.3 417.7 106.7 415.6 106.7C407.7 106.7 401.8 104.2 397.8 99.1C393.9 94.1 391.9 86.2 391.9 75.6C391.9 65 394.4 57.6 399.4 52.2C404.4 46.8 411.1 44.2 419.6 44.2C428.1 44.2 424.9 44.3 426.6 44.6C428.3 44.9 430.1 45.4 432.1 46.1V23.4L423 22.4V19.3C425.3 18.3 428 17.5 431.1 16.8C434.2 16.1 437.1 15.5 439.9 15H442.9V98.4L450.8 99.4V101.9C448.5 103 446.1 104 443.6 104.8C441.1 105.6 438.7 106.2 436.3 106.5H433.3L432.2 93.4H431.7ZM417.9 99.3C421.8 99.3 424.9 98.1 427.3 95.6C429.6 93.1 431.2 89.8 432.1 85.5V51.7C430.7 50.9 429.1 50.3 427.3 50C425.5 49.7 423.1 49.5 420.2 49.5C414.8 49.5 410.6 51.9 407.7 56.6C404.8 61.4 403.4 67.7 403.4 75.6C403.4 83.5 403.7 81.9 404.2 84.8C404.8 87.6 405.6 90.1 406.8 92.3C408 94.5 409.5 96.2 411.3 97.4C413.1 98.6 415.3 99.3 417.8 99.3H417.9Z" fill="#191B20"/>
</g>
<defs>
<linearGradient id="paint0_linear_1851_549080" x1="6" y1="38.4002" x2="96.1998" y2="69.1" gradientUnits="userSpaceOnUse">
<stop stop-color="#000B1F"/>
<stop offset="0.5" stop-color="#0057FF"/>
<stop offset="1" stop-color="#04CFFF"/>
</linearGradient>
<radialGradient id="paint1_radial_1851_549080" cx="0" cy="0" r="1" gradientUnits="userSpaceOnUse" gradientTransform="translate(-68.5037 4.5864) rotate(22.6) scale(143.55 161.81)">
<stop stop-color="#D8FF70"/>
<stop offset="0.5" stop-color="#04CFFF"/>
<stop offset="1" stop-color="#0057FF"/>
</radialGradient>
<clipPath id="clip0_1851_549080">
<rect width="451" height="122" fill="white"/>
</clipPath>
</defs>
</svg>
