<svg width="1313" height="630" viewBox="0 0 1313 630" fill="none" xmlns="http://www.w3.org/2000/svg">
<path d="M1169.75 314.879L1059.22 506.335H838.156L727.624 314.879L838.156 123.422H1059.22L1169.75 314.879Z" fill="#231F20"/>
<path d="M1130.46 0.0616806H766.913L656.382 191.518L620.73 253.199L585.079 314.879L474.547 506.336H253.484L142.953 314.879L253.484 123.423H474.547L513.9 191.518L549.551 129.838L585.141 68.0954L545.789 0H182.305L0.532227 314.879L182.305 629.697H545.85L656.443 438.241L766.975 629.697H1130.52L1312.29 314.879L1130.46 0.0616806ZM1059.22 506.336H838.093L727.561 314.879L838.093 123.423H1059.22L1169.75 314.879L1059.22 506.336Z" fill="#231F20"/>
</svg>
