<?xml version="1.0" encoding="UTF-8"?>
<!DOCTYPE svg PUBLIC "-//W3C//DTD SVG 1.1//EN" "http://www.w3.org/Graphics/SVG/1.1/DTD/svg11.dtd">
<svg xmlns="http://www.w3.org/2000/svg" version="1.1" width="312px" height="96px" style="shape-rendering:geometricPrecision; text-rendering:geometricPrecision; image-rendering:optimizeQuality; fill-rule:evenodd; clip-rule:evenodd" xmlns:xlink="http://www.w3.org/1999/xlink">
<g><path style="opacity:0.837" fill="#fefffe" d="M 3.5,-0.5 C 34.5,-0.5 65.5,-0.5 96.5,-0.5C 97.8361,1.01027 99.0027,2.67694 100,4.5C 100.667,32.8333 100.667,61.1667 100,89.5C 99.2155,91.286 98.0488,92.786 96.5,94C 65.5,94.6667 34.5,94.6667 3.5,94C 2.29493,92.6244 0.961599,91.4577 -0.5,90.5C -0.5,61.5 -0.5,32.5 -0.5,3.5C 1.16667,2.5 2.5,1.16667 3.5,-0.5 Z M 9.5,4.5 C 37.2552,4.01715 64.9219,4.51715 92.5,6C 93.7014,6.90252 94.5348,8.06919 95,9.5C 95.981,35.2539 95.6477,60.9205 94,86.5C 93.0975,87.7014 91.9308,88.5348 90.5,89C 62.7467,89.9825 35.0801,89.6491 7.5,88C 6.29857,87.0975 5.46524,85.9308 5,84.5C 4.33333,59.5 4.33333,34.5 5,9.5C 6.02496,7.31305 7.52496,5.64638 9.5,4.5 Z"/></g>
<g><path style="opacity:0.771" fill="#6028ff" d="M 17.5,18.5 C 18.8333,18.5 20.1667,18.5 21.5,18.5C 21.6168,20.4835 20.9501,22.1502 19.5,23.5C 22.0186,25.6409 22.0186,27.6409 19.5,29.5C 13.8437,26.5682 13.1771,22.9016 17.5,18.5 Z"/></g>
<g><path style="opacity:0.726" fill="#fefffe" d="M 24.5,21.5 C 37.8375,21.3334 51.1708,21.5001 64.5,22C 65.8333,23 65.8333,24 64.5,25C 50.8374,25.4999 37.1707,25.6666 23.5,25.5C 23.4326,24.0413 23.7659,22.7079 24.5,21.5 Z"/></g>
<g><path style="opacity:0.863" fill="#fefffe" d="M 195.5,22.5 C 199.167,22.5 202.833,22.5 206.5,22.5C 206.334,28.1764 206.501,33.8431 207,39.5C 212.646,35.6722 218.479,35.5055 224.5,39C 231.465,49.288 231.132,59.288 223.5,69C 219.445,71.3403 215.111,72.007 210.5,71C 207.943,70.3147 206.109,68.8147 205,66.5C 203.812,67.5634 203.312,68.8967 203.5,70.5C 200.833,70.5 198.167,70.5 195.5,70.5C 195.5,54.5 195.5,38.5 195.5,22.5 Z M 209.5,44.5 C 216.176,44.0066 219.509,47.1733 219.5,54C 219.522,60.9867 216.189,63.9867 209.5,63C 208.299,62.0975 207.465,60.9308 207,59.5C 205.776,54.0435 206.609,49.0435 209.5,44.5 Z"/></g>
<g><path style="opacity:0.892" fill="#fefffe" d="M 271.5,22.5 C 274.833,22.5 278.167,22.5 281.5,22.5C 281.333,35.8375 281.5,49.1708 282,62.5C 283.356,63.3802 284.856,63.7135 286.5,63.5C 287.91,71.0644 284.91,73.5644 277.5,71C 275.152,70.6541 273.319,69.4875 272,67.5C 271.5,52.5037 271.333,37.5037 271.5,22.5 Z"/></g>
<g><path style="opacity:0.878" fill="#fefffe" d="M 126.5,23.5 C 140.377,20.5985 149.377,25.7651 153.5,39C 149.833,39.6667 146.167,39.6667 142.5,39C 138.413,30.768 132.913,29.6014 126,35.5C 123.134,42.3636 122.801,49.3636 125,56.5C 127.451,62.0891 131.617,63.9224 137.5,62C 139.787,59.9302 141.453,57.4302 142.5,54.5C 146.167,53.1667 149.833,53.1667 153.5,54.5C 149.668,70.0793 140.002,75.2459 124.5,70C 113.999,62.5144 110.166,52.3477 113,39.5C 114.859,31.8174 119.359,26.4841 126.5,23.5 Z"/></g>
<g><path style="opacity:0.866" fill="#fefffe" d="M 311.5,36.5 C 311.5,39.1667 311.5,41.8333 311.5,44.5C 308.833,44.5 306.167,44.5 303.5,44.5C 303.334,50.5092 303.501,56.5092 304,62.5C 306.381,63.435 308.881,63.7683 311.5,63.5C 311.5,65.8333 311.5,68.1667 311.5,70.5C 305.701,72.2076 300.201,71.541 295,68.5C 293.599,60.5852 293.099,52.5852 293.5,44.5C 291.833,44.5 290.167,44.5 288.5,44.5C 288.5,41.8333 288.5,39.1667 288.5,36.5C 290.5,36.5 292.5,36.5 294.5,36.5C 294.547,33.4318 295.047,30.4318 296,27.5C 298.381,26.565 300.881,26.2317 303.5,26.5C 303.5,29.8333 303.5,33.1667 303.5,36.5C 306.167,36.5 308.833,36.5 311.5,36.5 Z"/></g>
<g><path style="opacity:0.716" fill="#fefffe" d="M 24.5,30.5 C 29.8437,30.334 35.1771,30.5006 40.5,31C 41.1667,31.6667 41.8333,32.3333 42.5,33C 36.3473,34.4554 30.0139,34.9554 23.5,34.5C 23.4326,33.0413 23.7659,31.7079 24.5,30.5 Z"/></g>
<g><path style="opacity:0.872" fill="#fefffe" d="M 168.5,36.5 C 186.967,35.7139 193.8,44.3806 189,62.5C 184.409,70.3703 177.576,73.2036 168.5,71C 158.076,65.4107 154.909,56.9107 159,45.5C 161.294,41.4612 164.461,38.4612 168.5,36.5 Z M 171.5,44.5 C 176.689,43.1913 179.522,45.1913 180,50.5C 181.213,55.3816 180.046,59.5483 176.5,63C 170.086,63.4157 167.086,60.249 167.5,53.5C 167.686,49.9232 169.02,46.9232 171.5,44.5 Z"/></g>
<g><path style="opacity:0.874" fill="#fefffe" d="M 242.5,36.5 C 247.179,36.3342 251.845,36.5008 256.5,37C 258.587,37.7922 260.421,38.9588 262,40.5C 263.449,50.3949 263.949,60.3949 263.5,70.5C 260.5,70.5 257.5,70.5 254.5,70.5C 254.649,69.448 254.483,68.448 254,67.5C 247.02,73.1313 240.354,72.7979 234,66.5C 230.958,57.9519 233.792,52.4519 242.5,50C 246.152,49.5014 249.818,49.3347 253.5,49.5C 254.062,45.901 252.562,43.901 249,43.5C 246.63,43.6002 244.797,44.6002 243.5,46.5C 240.572,47.4841 237.572,47.8174 234.5,47.5C 234.866,42.1373 237.533,38.4706 242.5,36.5 Z M 246.5,55.5 C 248.833,55.5 251.167,55.5 253.5,55.5C 254.195,62.4765 251.195,65.1432 244.5,63.5C 241.663,60.0052 242.33,57.3385 246.5,55.5 Z"/></g>
<g><path style="opacity:0.732" fill="#fefffe" d="M 23.5,40.5 C 41.1698,40.3334 58.8365,40.5001 76.5,41C 77.8333,42 77.8333,43 76.5,44C 59.1667,44.6667 41.8333,44.6667 24.5,44C 23.6634,42.9887 23.33,41.8221 23.5,40.5 Z"/></g>
<g><path style="opacity:0.811" fill="#5f26ff" d="M 79.5,45.5 C 87.6315,48.372 88.1315,52.0387 81,56.5C 79.9412,56.3699 79.1079,55.8699 78.5,55C 79.2567,53.4878 80.2567,52.1545 81.5,51C 78.9177,49.6618 78.2511,47.8285 79.5,45.5 Z"/></g>
<g><path style="opacity:0.725" fill="#fefffe" d="M 24.5,49.5 C 34.5,49.5 44.5,49.5 54.5,49.5C 54.5,50.8333 54.5,52.1667 54.5,53.5C 44.1667,53.5 33.8333,53.5 23.5,53.5C 23.4326,52.0413 23.7659,50.7079 24.5,49.5 Z"/></g>
<g><path style="opacity:0.705" fill="#fefffe" d="M 58.5,49.5 C 64.5092,49.3338 70.5092,49.5005 76.5,50C 77.3366,51.0113 77.67,52.1779 77.5,53.5C 71.1579,53.6662 64.8246,53.4995 58.5,53C 57.8288,52.0138 57.8288,50.8471 58.5,49.5 Z"/></g>
<g><path style="opacity:0.757" fill="#6128ff" d="M 18.5,55.5 C 19.5,55.5 20.5,55.5 21.5,55.5C 21.822,57.7224 21.1554,59.5557 19.5,61C 21.1554,62.4443 21.822,64.2776 21.5,66.5C 13.7255,64.5212 12.7255,60.8545 18.5,55.5 Z"/></g>
<g><path style="opacity:0.913" fill="#fefffe" d="M 23.5,59.5 C 31.1667,59.5 38.8333,59.5 46.5,59.5C 46.5,60.5 46.5,61.5 46.5,62.5C 38.8333,62.5 31.1667,62.5 23.5,62.5C 23.5,61.5 23.5,60.5 23.5,59.5 Z"/></g>
<g><path style="opacity:0.905" fill="#fefffe" d="M 49.5,59.5 C 58.8333,59.5 68.1667,59.5 77.5,59.5C 77.5,60.5 77.5,61.5 77.5,62.5C 68.1667,62.5 58.8333,62.5 49.5,62.5C 49.5,61.5 49.5,60.5 49.5,59.5 Z"/></g>
<g><path style="opacity:0.779" fill="#6028ff" d="M 65.5,64.5 C 74.8333,68.1667 74.8333,71.8333 65.5,75.5C 65.178,73.2776 65.8446,71.4443 67.5,70C 65.8446,68.5557 65.178,66.7224 65.5,64.5 Z"/></g>
<g><path style="opacity:0.729" fill="#fefffe" d="M 23.5,68.5 C 36.8333,68.5 50.1667,68.5 63.5,68.5C 63.5,69.8333 63.5,71.1667 63.5,72.5C 50.4957,72.6666 37.4957,72.4999 24.5,72C 23.6634,70.9887 23.33,69.8221 23.5,68.5 Z"/></g>
</svg>
