<?xml version="1.0" encoding="UTF-8"?>
<!DOCTYPE svg PUBLIC "-//W3C//DTD SVG 1.1//EN" "http://www.w3.org/Graphics/SVG/1.1/DTD/svg11.dtd">
<svg xmlns="http://www.w3.org/2000/svg" version="1.1" width="933px" height="286px" style="shape-rendering:geometricPrecision; text-rendering:geometricPrecision; image-rendering:optimizeQuality; fill-rule:evenodd; clip-rule:evenodd" xmlns:xlink="http://www.w3.org/1999/xlink">
<g><path style="opacity:1" fill="#101010" d="M 17.5,-0.5 C 106.167,-0.5 194.833,-0.5 283.5,-0.5C 291.481,2.64896 296.981,8.31563 300,16.5C 300.992,101.223 300.658,185.89 299,270.5C 295.686,277.149 290.519,281.649 283.5,284C 194.833,284.667 106.167,284.667 17.5,284C 10.4808,281.649 5.31412,277.149 2,270.5C 0.34153,185.89 0.00819631,101.223 1,16.5C 4.01911,8.31563 9.51911,2.64896 17.5,-0.5 Z M 31.5,13.5 C 111.167,13.3333 190.834,13.5 270.5,14C 280.07,16.6453 285.903,22.812 288,32.5C 288.667,105.5 288.667,178.5 288,251.5C 285.945,261.222 280.112,267.389 270.5,270C 190.5,270.667 110.5,270.667 30.5,270C 20.6429,267.124 14.8096,260.624 13,250.5C 12.3333,177.833 12.3333,105.167 13,32.5C 15.3571,22.3111 21.5237,15.9777 31.5,13.5 Z"/></g>
<g><path style="opacity:0.896" fill="#5f28f9" d="M 57.5,56.5 C 61.7555,55.4545 64.4222,56.9545 65.5,61C 63.423,64.9154 60.7563,68.4154 57.5,71.5C 60.2005,75.1916 62.8671,78.8583 65.5,82.5C 64.4985,86.8363 61.8319,88.3363 57.5,87C 52.085,82.7731 48.085,77.6065 45.5,71.5C 45.6667,70.5 45.8333,69.5 46,68.5C 50.037,64.631 53.8704,60.631 57.5,56.5 Z"/></g>
<g><path style="opacity:1" fill="#0f0f0f" d="M 76.5,66.5 C 114.835,66.3333 153.168,66.5 191.5,67C 195.944,69.1114 196.611,72.1114 193.5,76C 153.833,76.6667 114.167,76.6667 74.5,76C 71.5227,72.0526 72.1894,68.8859 76.5,66.5 Z"/></g>
<g><path style="opacity:0.993" fill="#000000" d="M 589.5,69.5 C 599.167,69.5 608.833,69.5 618.5,69.5C 618.333,87.8364 618.5,106.17 619,124.5C 626.233,115.074 635.899,110.408 648,110.5C 669.013,111.844 681.68,122.844 686,143.5C 688,155.833 688,168.167 686,180.5C 678.451,208.032 660.618,218.866 632.5,213C 624.084,209.585 617.918,203.752 614,195.5C 612.513,200.755 611.346,206.089 610.5,211.5C 603.532,212.497 596.532,212.83 589.5,212.5C 589.5,164.833 589.5,117.167 589.5,69.5 Z M 632.5,132.5 C 648.223,130.717 657.056,137.717 659,153.5C 661.039,165.633 659.039,176.966 653,187.5C 644.833,194.515 636,195.349 626.5,190C 621.958,185.079 619.458,179.246 619,172.5C 617.711,161.919 618.711,151.586 622,141.5C 624.505,137.189 628.005,134.189 632.5,132.5 Z"/></g>
<g><path style="opacity:0.993" fill="#000000" d="M 815.5,69.5 C 824.833,69.5 834.167,69.5 843.5,69.5C 843.333,108.168 843.5,146.835 844,185.5C 844.427,189.527 846.594,192.027 850.5,193C 853.482,193.498 856.482,193.665 859.5,193.5C 859.5,199.833 859.5,206.167 859.5,212.5C 846.457,216.267 834.123,214.767 822.5,208C 820.044,205.592 818.211,202.759 817,199.5C 815.521,156.214 815.021,112.881 815.5,69.5 Z"/></g>
<g><path style="opacity:0.99" fill="#000000" d="M 390.5,71.5 C 417.035,67.8288 437.868,76.8288 453,98.5C 456.719,105.374 458.885,112.708 459.5,120.5C 449.494,120.666 439.494,120.5 429.5,120C 422.31,96.2443 407.31,89.5776 384.5,100C 378.466,105.564 374.633,112.398 373,120.5C 369.174,138.773 370.174,156.773 376,174.5C 386.719,191.69 400.886,195.19 418.5,185C 424.123,179.255 427.79,172.422 429.5,164.5C 439.478,163.501 449.478,163.168 459.5,163.5C 455.985,197.517 437.151,214.517 403,214.5C 366.214,212.567 345.214,193.234 340,156.5C 337.055,136.504 340.055,117.504 349,99.5C 358.673,83.9921 372.507,74.6588 390.5,71.5 Z"/></g>
<g><path style="opacity:0.99" fill="#000000" d="M 932.5,112.5 C 932.5,119.5 932.5,126.5 932.5,133.5C 925.5,133.5 918.5,133.5 911.5,133.5C 911.333,152.17 911.5,170.836 912,189.5C 912.5,191.333 913.667,192.5 915.5,193C 921.157,193.499 926.824,193.666 932.5,193.5C 932.5,199.833 932.5,206.167 932.5,212.5C 922.86,213.559 913.194,213.725 903.5,213C 891.768,211.566 884.935,205.066 883,193.5C 882.5,173.503 882.333,153.503 882.5,133.5C 877.167,133.5 871.833,133.5 866.5,133.5C 866.5,126.5 866.5,119.5 866.5,112.5C 872.206,112.829 877.872,112.495 883.5,111.5C 885.833,102.167 888.167,92.8333 890.5,83.5C 897.468,82.503 904.468,82.1697 911.5,82.5C 911.5,92.5 911.5,102.5 911.5,112.5C 918.5,112.5 925.5,112.5 932.5,112.5 Z"/></g>
<g><path style="opacity:0.986" fill="#0f0f10" d="M 76.5,94.5 C 91.837,94.3334 107.17,94.5001 122.5,95C 126.692,97.2395 127.359,100.239 124.5,104C 107.833,104.667 91.1667,104.667 74.5,104C 71.5227,100.053 72.1894,96.8859 76.5,94.5 Z"/></g>
<g><path style="opacity:0.989" fill="#000000" d="M 517.5,110.5 C 548.039,109.219 565.873,123.553 571,153.5C 573.523,170.393 569.856,185.726 560,199.5C 547.121,212.269 531.621,217.102 513.5,214C 492.787,210.287 480.287,198.12 476,177.5C 471.824,157.04 476.324,138.873 489.5,123C 497.655,116.011 506.989,111.844 517.5,110.5 Z M 517.5,132.5 C 534.1,131.594 542.6,139.594 543,156.5C 543.943,165.84 542.61,174.84 539,183.5C 532.047,193.291 523.214,195.458 512.5,190C 505.661,182.007 502.327,172.673 502.5,162C 502.707,152.823 505.374,144.49 510.5,137C 512.898,135.476 515.231,133.976 517.5,132.5 Z"/></g>
<g><path style="opacity:0.975" fill="#000000" d="M 742.5,110.5 C 756.442,109.361 769.442,112.195 781.5,119C 787.202,124.238 790.369,130.738 791,138.5C 791.5,163.164 791.667,187.831 791.5,212.5C 783.167,212.5 774.833,212.5 766.5,212.5C 766.325,207.766 765.658,203.099 764.5,198.5C 757.515,209.744 747.349,215.077 734,214.5C 707.475,212.636 696.808,198.636 702,172.5C 707.394,160.792 716.561,153.959 729.5,152C 740.773,150.376 752.107,149.543 763.5,149.5C 763.78,132.78 755.78,126.946 739.5,132C 733.807,133.693 730.14,137.36 728.5,143C 720.507,143.5 712.507,143.666 704.5,143.5C 705.136,128.695 712.469,118.861 726.5,114C 731.905,112.504 737.239,111.337 742.5,110.5 Z M 745.5,165.5 C 751.5,165.5 757.5,165.5 763.5,165.5C 767.242,182.727 760.575,192.727 743.5,195.5C 733.838,195.335 728.505,190.501 727.5,181C 727.934,176.465 729.934,172.798 733.5,170C 737.432,167.972 741.432,166.472 745.5,165.5 Z"/></g>
<g><path style="opacity:0.985" fill="#101010" d="M 76.5,122.5 C 126.834,122.333 177.168,122.5 227.5,123C 231.872,125.195 232.539,128.195 229.5,132C 177.833,132.667 126.167,132.667 74.5,132C 71.5227,128.053 72.1894,124.886 76.5,122.5 Z"/></g>
<g><path style="opacity:0.896" fill="#5f28fb" d="M 240.5,139.5 C 242.527,139.338 244.527,139.505 246.5,140C 250.333,143.833 254.167,147.667 258,151.5C 258.667,153.833 258.667,156.167 258,158.5C 253.878,163.3 249.212,167.3 244,170.5C 238.915,169.663 237.582,166.997 240,162.5C 242.5,160 245,157.5 247.5,155C 244.296,152.131 241.463,148.965 239,145.5C 238.591,143.305 239.091,141.305 240.5,139.5 Z"/></g>
<g><path style="opacity:1" fill="#101010" d="M 74.5,151.5 C 103.835,151.333 133.169,151.5 162.5,152C 165.167,154.667 165.167,157.333 162.5,160C 133.167,160.667 103.833,160.667 74.5,160C 71.8987,157.17 71.8987,154.337 74.5,151.5 Z"/></g>
<g><path style="opacity:0.999" fill="#101010" d="M 177.5,151.5 C 195.17,151.333 212.836,151.5 230.5,152C 233.167,154.667 233.167,157.333 230.5,160C 212.833,160.667 195.167,160.667 177.5,160C 174.939,157.177 174.939,154.343 177.5,151.5 Z"/></g>
<g><path style="opacity:0.892" fill="#5f28f9" d="M 57.5,168.5 C 61.7555,167.454 64.4222,168.954 65.5,173C 63.423,176.915 60.7563,180.415 57.5,183.5C 60.2005,187.192 62.8671,190.858 65.5,194.5C 64.7344,199.15 62.0678,200.65 57.5,199C 52.085,194.773 48.085,189.606 45.5,183.5C 45.6667,182.5 45.8333,181.5 46,180.5C 50.037,176.631 53.8704,172.631 57.5,168.5 Z"/></g>
<g><path style="opacity:0.986" fill="#101010" d="M 76.5,178.5 C 96.1695,178.333 115.836,178.5 135.5,179C 139.872,181.195 140.539,184.195 137.5,188C 116.5,188.667 95.5,188.667 74.5,188C 71.5227,184.053 72.1894,180.886 76.5,178.5 Z"/></g>
<g><path style="opacity:0.986" fill="#101010" d="M 154.5,178.5 C 178.836,178.333 203.169,178.5 227.5,179C 231.872,181.195 232.539,184.195 229.5,188C 203.833,188.667 178.167,188.667 152.5,188C 149.743,184.107 150.409,180.94 154.5,178.5 Z"/></g>
<g><path style="opacity:0.897" fill="#6028fd" d="M 199.5,196.5 C 201.199,196.34 202.866,196.506 204.5,197C 209.594,201.421 213.927,206.421 217.5,212C 213.632,218.535 208.465,223.702 202,227.5C 197.794,226.472 196.461,223.805 198,219.5C 200.5,217 203,214.5 205.5,212C 203,209.5 200.5,207 198,204.5C 197.109,201.502 197.609,198.836 199.5,196.5 Z"/></g>
<g><path style="opacity:0.985" fill="#101010" d="M 74.5,207.5 C 112.835,207.333 151.168,207.5 189.5,208C 192.167,210.667 192.167,213.333 189.5,216C 151.167,216.667 112.833,216.667 74.5,216C 71.8987,213.17 71.8987,210.337 74.5,207.5 Z"/></g>
</svg>
