<svg width="531" height="204" viewBox="0 0 531 204" fill="none" xmlns="http://www.w3.org/2000/svg">
<path d="M135.6 40.7002H39.9004V114.9C66.5004 114.9 88.0004 136.4 88.0004 163H135.6C135.6 129.8 118.6 100.4 92.8004 83.3002H135.6V40.8002V40.7002Z" fill="url(#paint0_linear_67_176963)"/>
<path d="M135.6 40.7002H39.9004V83.2002H135.6V40.7002Z" fill="url(#paint1_radial_67_176963)"/>
<path d="M197.8 139.9C199.6 140.3 201.4 140.7 203.1 141.2C204.8 141.6 206.4 142.2 208 142.8V146.3H176.4V142.8C178.2 142 179.8 141.4 181.4 141C183 140.6 184.6 140.2 186.2 139.9V68.7002C184.1 68.3002 182.3 67.8002 180.7 67.3002C179.1 66.8002 177.7 66.2002 176.4 65.7002V62.2002H187C190.2 62.2002 193.7 62.0002 197.5 61.7002C201.3 61.4002 205 61.2002 208.6 61.2002C212.2 61.2002 216.2 61.6002 219.6 62.5002C223 63.4002 226 64.8002 228.4 66.7002C230.9 68.6002 232.8 71.1002 234.2 74.0002C235.6 77.0002 236.3 80.5002 236.3 84.7002C236.3 88.9002 234.8 95.4002 231.7 99.2002C228.6 103 224.4 105.8 219.1 107.5C222.5 112.9 226.1 118.3 229.9 123.7C233.7 129.1 237.6 134.4 241.7 139.7L248.2 143.2V146.2H233.6L229 142.8C226.8 140 224.7 137.3 222.9 134.6C221.1 131.9 219.3 129.2 217.7 126.4C216.1 123.6 214.6 120.8 213.2 118C211.8 115.2 210.4 112.1 208.9 108.9H197.6V139.7L197.8 139.9ZM205.9 67.5002C204 67.5002 202.4 67.5002 201.2 67.6002C200 67.6002 198.8 67.8002 197.8 68.1002V103.7H206.4C211.9 103.7 216.3 102 219.5 98.5002C222.7 95.0002 224.4 90.4002 224.4 84.7002C224.4 79.0002 222.7 74.5002 219.2 71.7002C215.8 68.9002 211.3 67.5002 205.9 67.5002Z" fill="white"/>
<path d="M297.6 137.9C297 139.3 296 140.5 294.6 141.7C293.2 142.9 291.7 143.9 289.9 144.8C288.1 145.7 286.2 146.4 284.1 146.9C282 147.4 279.9 147.7 277.7 147.7C273 147.7 268.8 147 265.2 145.5C261.6 144 258.6 141.9 256.2 139.1C253.8 136.3 252 133 250.7 129.2C249.5 125.4 248.8 121 248.8 116.2C248.8 106 251.2 98.1998 255.9 92.7998C260.6 87.3998 267.3 84.7998 275.9 84.7998C284.5 84.7998 281.5 85.1998 284.2 85.8998C286.9 86.6998 289.3 87.8998 291.5 89.6998C293.6 91.4998 295.3 93.7998 296.7 96.6998C298 99.5998 298.7 103.2 298.7 107.6C298.7 112 298.7 110.3 298.5 111.7C298.4 113.1 298.2 114.6 297.8 116.2H260.4C260.4 119.6 260.8 122.7 261.7 125.6C262.5 128.5 263.8 131.1 265.5 133.2C267.2 135.3 269.3 137.1 271.9 138.3C274.5 139.5 277.5 140.2 280.9 140.2C284.3 140.2 286.5 139.8 289.4 139C292.3 138.2 294.4 137.2 295.9 135.9L297.6 137.8V137.9ZM275.6 90.0998C271 90.0998 267.6 91.5998 265.2 94.6998C262.8 97.7998 261.4 103.2 260.9 111H287.3C287.3 110.3 287.4 109.6 287.5 108.9C287.5 108.2 287.5 107.6 287.5 106.9C287.5 101.8 286.5 97.6998 284.6 94.6998C282.7 91.6998 279.7 90.0998 275.6 90.0998Z" fill="white"/>
<path d="M335.9 56C336.6 56 337.5 56 338.4 56.1C339.4 56.1 340.4 56.3 341.4 56.4C342.4 56.5 343.4 56.7 344.4 56.9C345.4 57.1 346.2 57.3 346.9 57.6C346.7 60.2 346.3 62.7 345.9 65C345.5 67.3 344.9 69.3 344.3 71.2H341.3L336 60.9C333.7 60.9 331.7 61.1 330.1 61.6C328.5 62.1 327.1 63 326 64.4C324.9 65.8 324.1 67.7 323.6 70.3C323.1 72.9 322.8 76.2 322.8 80.4V86.4H336.6V92.6H322.8V140.5C327 141 330.8 141.9 334.3 143.4V146.4H304.1V143.4C306.6 142 309.2 141 312 140.5V92.6H302.9V89.4C305.7 87.6 308.7 86.2 312 85.3V81.1C312 76.1 312.6 72 313.8 68.8C315 65.6 316.7 63 318.8 61.1C321 59.2 323.5 57.9 326.4 57.2C329.3 56.5 332.5 56.1 335.8 56.1L335.9 56Z" fill="white"/>
<path d="M339.8 116.3C339.8 111.3 340.5 106.8 341.8 102.9C343.1 98.9999 345 95.6999 347.5 93.0999C350 90.3999 353 88.3999 356.4 86.9999C359.9 85.5999 363.7 84.8999 368 84.8999C372.3 84.8999 377.2 85.6999 380.8 87.1999C384.4 88.6999 387.3 90.8999 389.6 93.5999C391.9 96.3999 393.6 99.6999 394.6 103.5C395.6 107.3 396.2 111.6 396.2 116.3C396.2 126.4 393.6 134.1 388.5 139.6C383.4 145 376.5 147.8 367.9 147.8C359.3 147.8 358.9 147.1 355.4 145.6C351.9 144.1 349 142 346.6 139.2C344.3 136.4 342.5 133.1 341.4 129.2C340.2 125.3 339.7 121 339.7 116.3H339.8ZM351.3 116.3C351.3 119.9 351.6 123.3 352.3 126.5C353 129.7 354.1 132.5 355.5 134.8C357 137.2 358.9 139 361.3 140.4C363.7 141.8 366.6 142.4 369.9 142.4C373.2 142.4 377.8 140.3 380.5 136C383.3 131.8 384.6 125.2 384.6 116.2C384.6 107.2 384.3 109.1 383.6 105.9C382.9 102.7 381.9 99.9999 380.4 97.5999C379 95.1999 377.1 93.3999 374.9 91.9999C372.7 90.5999 370 89.9999 366.9 89.9999C362.2 89.9999 358.4 92.0999 355.5 96.3999C352.6 100.6 351.2 107.2 351.2 116.2L351.3 116.3Z" fill="white"/>
<path d="M427.5 146.3H400.9V143.3C403.5 142 406.2 141.1 408.8 140.4V64.4L399.7 63.4V60.3C401.8 59.3 404.4 58.5 407.5 57.8C410.6 57.1 413.7 56.5 416.6 56H419.6V140.4C422.2 141 424.9 142 427.5 143.3V146.3Z" fill="white"/>
<path d="M471.6 134.4C471.2 136.2 470.5 137.8 469.6 139.4C468.6 141 467.5 142.4 466.1 143.7C464.7 144.9 463.1 145.9 461.3 146.6C459.5 147.3 457.6 147.7 455.5 147.7C447.6 147.7 441.7 145.2 437.7 140.1C433.8 135.1 431.8 127.2 431.8 116.6C431.8 106 434.3 98.6 439.3 93.2C444.3 87.8 451 85.2 459.5 85.2C468 85.2 464.8 85.3 466.5 85.6C468.2 85.9 470 86.4 472 87.1V64.4L462.9 63.4V60.3C465.2 59.3 467.9 58.5 471 57.8C474.1 57.1 477 56.5 479.8 56H482.8V139.4L490.7 140.4V142.9C488.4 144 486 145 483.5 145.8C481 146.6 478.6 147.2 476.2 147.5H473.2L472.1 134.4H471.6ZM457.8 140.3C461.7 140.3 464.8 139.1 467.2 136.6C469.5 134.1 471.1 130.8 472 126.5V92.7C470.6 91.9 469 91.3 467.2 91C465.4 90.7 463 90.5 460.1 90.5C454.7 90.5 450.5 92.9 447.6 97.6C444.7 102.4 443.3 108.7 443.3 116.6C443.3 124.5 443.6 122.9 444.1 125.8C444.7 128.6 445.5 131.1 446.7 133.3C447.9 135.5 449.4 137.2 451.2 138.4C453 139.6 455.2 140.3 457.7 140.3H457.8Z" fill="white"/>
<defs>
<linearGradient id="paint0_linear_67_176963" x1="45.9004" y1="79.4002" x2="136.1" y2="110.1" gradientUnits="userSpaceOnUse">
<stop stop-color="#000B1F"/>
<stop offset="0.5" stop-color="#0057FF"/>
<stop offset="1" stop-color="#04CFFF"/>
</linearGradient>
<radialGradient id="paint1_radial_67_176963" cx="0" cy="0" r="1" gradientUnits="userSpaceOnUse" gradientTransform="translate(-28.6034 45.5864) rotate(22.6) scale(143.55 161.81)">
<stop stop-color="#D8FF70"/>
<stop offset="0.5" stop-color="#04CFFF"/>
<stop offset="1" stop-color="#0057FF"/>
</radialGradient>
</defs>
</svg>
