<svg width="1313" height="630" viewBox="0 0 1313 630" fill="none" xmlns="http://www.w3.org/2000/svg">
<path d="M1169.75 314.879L1059.22 506.335H838.155L727.623 314.879L838.155 123.422H1059.22L1169.75 314.879Z" fill="white"/>
<path d="M1130.46 0.0616806H766.913L656.381 191.518L620.73 253.199L585.078 314.879L474.547 506.336H253.484L142.952 314.879L253.484 123.423H474.547L513.899 191.518L549.551 129.838L585.14 68.0954L545.788 0H182.304L0.531738 314.879L182.304 629.697H545.85L656.443 438.241L766.975 629.697H1130.52L1312.29 314.879L1130.46 0.0616806ZM1059.22 506.336H838.092L727.561 314.879L838.092 123.423H1059.22L1169.75 314.879L1059.22 506.336Z" fill="white"/>
</svg>
