<svg width="451" height="122" viewBox="0 0 451 122" fill="none" xmlns="http://www.w3.org/2000/svg">
<g clip-path="url(#clip0_112_295260)">
<path d="M95.6 -0.299805H-0.0996094V73.9C26.5004 73.9 48.0004 95.4 48.0004 122H95.6C95.6 88.8 78.6 59.4 52.8004 42.3002H95.6V-0.199802V-0.299805Z" fill="url(#paint0_linear_112_295260)"/>
<path d="M95.6 -0.299805H-0.0996094V42.2002H95.6V-0.299805Z" fill="url(#paint1_radial_112_295260)"/>
<path d="M157.8 98.9C159.6 99.3 161.4 99.7 163.1 100.2C164.8 100.6 166.4 101.2 168 101.8V105.3H136.4V101.8C138.2 101 139.8 100.4 141.4 100C143 99.6 144.6 99.2 146.2 98.9V27.7002C144.1 27.3002 142.3 26.8002 140.7 26.3002C139.1 25.8002 137.7 25.2002 136.4 24.7002V21.2002H147C150.2 21.2002 153.7 21.0002 157.5 20.7002C161.3 20.4002 165 20.2002 168.6 20.2002C172.2 20.2002 176.2 20.6002 179.6 21.5002C183 22.4002 186 23.8002 188.4 25.7002C190.9 27.6002 192.8 30.1002 194.2 33.0002C195.6 36.0002 196.3 39.5002 196.3 43.7002C196.3 47.9002 194.8 54.4002 191.7 58.2002C188.6 62 184.4 64.8 179.1 66.5C182.5 71.9 186.1 77.3 189.9 82.7C193.7 88.1 197.6 93.4 201.7 98.7L208.2 102.2V105.2H193.6L189 101.8C186.8 99 184.7 96.3 182.9 93.6C181.1 90.9 179.3 88.2 177.7 85.4C176.1 82.6 174.6 79.8 173.2 77C171.8 74.2 170.4 71.1 168.9 67.9H157.6V98.7L157.8 98.9ZM165.9 26.5002C164 26.5002 162.4 26.5002 161.2 26.6002C160 26.6002 158.8 26.8002 157.8 27.1002V62.7H166.4C171.9 62.7 176.3 61 179.5 57.5002C182.7 54.0002 184.4 49.4002 184.4 43.7002C184.4 38.0002 182.7 33.5002 179.2 30.7002C175.8 27.9002 171.3 26.5002 165.9 26.5002Z" fill="white"/>
<path d="M257.6 96.9C257 98.3 256 99.5 254.6 100.7C253.2 101.9 251.7 102.9 249.9 103.8C248.1 104.7 246.2 105.4 244.1 105.9C242 106.4 239.9 106.7 237.7 106.7C233 106.7 228.8 106 225.2 104.5C221.6 103 218.6 100.9 216.2 98.1C213.8 95.3 212 92 210.7 88.2C209.5 84.4 208.8 80 208.8 75.2C208.8 65 211.2 57.1998 215.9 51.7998C220.6 46.3998 227.3 43.7998 235.9 43.7998C244.5 43.7998 241.5 44.1998 244.2 44.8998C246.9 45.6998 249.3 46.8998 251.5 48.6998C253.6 50.4998 255.3 52.7998 256.7 55.6998C258 58.5998 258.7 62.2 258.7 66.6C258.7 71 258.7 69.3 258.5 70.7C258.4 72.1 258.2 73.6 257.8 75.2H220.4C220.4 78.6 220.8 81.7 221.7 84.6C222.5 87.5 223.8 90.1 225.5 92.2C227.2 94.3 229.3 96.1 231.9 97.3C234.5 98.5 237.5 99.2 240.9 99.2C244.3 99.2 246.5 98.8 249.4 98C252.3 97.2 254.4 96.2 255.9 94.9L257.6 96.8V96.9ZM235.6 49.0998C231 49.0998 227.6 50.5998 225.2 53.6998C222.8 56.7998 221.4 62.2 220.9 70H247.3C247.3 69.3 247.4 68.6 247.5 67.9C247.5 67.2 247.5 66.6 247.5 65.9C247.5 60.8 246.5 56.6998 244.6 53.6998C242.7 50.6998 239.7 49.0998 235.6 49.0998Z" fill="white"/>
<path d="M295.9 15C296.6 15 297.5 15 298.4 15.1C299.4 15.1 300.4 15.3 301.4 15.4C302.4 15.5 303.4 15.7 304.4 15.9C305.4 16.1 306.2 16.3 306.9 16.6C306.7 19.2 306.3 21.7 305.9 24C305.5 26.3 304.9 28.3 304.3 30.2H301.3L296 19.9C293.7 19.9 291.7 20.1 290.1 20.6C288.5 21.1 287.1 22 286 23.4C284.9 24.8 284.1 26.7 283.6 29.3C283.1 31.9 282.8 35.2 282.8 39.4V45.4H296.6V51.6H282.8V99.5C287 100 290.8 100.9 294.3 102.4V105.4H264.1V102.4C266.6 101 269.2 100 272 99.5V51.6H262.9V48.4C265.7 46.6 268.7 45.2 272 44.3V40.1C272 35.1 272.6 31 273.8 27.8C275 24.6 276.7 22 278.8 20.1C281 18.2 283.5 16.9 286.4 16.2C289.3 15.5 292.5 15.1 295.8 15.1L295.9 15Z" fill="white"/>
<path d="M299.8 75.3C299.8 70.3 300.5 65.8 301.8 61.9C303.1 57.9999 305 54.6999 307.5 52.0999C310 49.3999 313 47.3999 316.4 45.9999C319.9 44.5999 323.7 43.8999 328 43.8999C332.3 43.8999 337.2 44.6999 340.8 46.1999C344.4 47.6999 347.3 49.8999 349.6 52.5999C351.9 55.3999 353.6 58.6999 354.6 62.5C355.6 66.3 356.2 70.6 356.2 75.3C356.2 85.4 353.6 93.1 348.5 98.6C343.4 104 336.5 106.8 327.9 106.8C319.3 106.8 318.9 106.1 315.4 104.6C311.9 103.1 309 101 306.6 98.2C304.3 95.4 302.5 92.1 301.4 88.2C300.2 84.3 299.7 80 299.7 75.3H299.8ZM311.3 75.3C311.3 78.9 311.6 82.3 312.3 85.5C313 88.7 314.1 91.5 315.5 93.8C317 96.2 318.9 98 321.3 99.4C323.7 100.8 326.6 101.4 329.9 101.4C333.2 101.4 337.8 99.3 340.5 95C343.3 90.8 344.6 84.2 344.6 75.2C344.6 66.2 344.3 68.1 343.6 64.9C342.9 61.7 341.9 58.9999 340.4 56.5999C339 54.1999 337.1 52.3999 334.9 50.9999C332.7 49.5999 330 48.9999 326.9 48.9999C322.2 48.9999 318.4 51.0999 315.5 55.3999C312.6 59.6 311.2 66.2 311.2 75.2L311.3 75.3Z" fill="white"/>
<path d="M387.5 105.3H360.9V102.3C363.5 101 366.2 100.1 368.8 99.4V23.4L359.7 22.4V19.3C361.8 18.3 364.4 17.5 367.5 16.8C370.6 16.1 373.7 15.5 376.6 15H379.6V99.4C382.2 100 384.9 101 387.5 102.3V105.3Z" fill="white"/>
<path d="M431.6 93.4C431.2 95.2 430.5 96.8 429.6 98.4C428.6 100 427.5 101.4 426.1 102.7C424.7 103.9 423.1 104.9 421.3 105.6C419.5 106.3 417.6 106.7 415.5 106.7C407.6 106.7 401.7 104.2 397.7 99.1C393.8 94.1 391.8 86.2 391.8 75.6C391.8 65 394.3 57.6 399.3 52.2C404.3 46.8 411 44.2 419.5 44.2C428 44.2 424.8 44.3 426.5 44.6C428.2 44.9 430 45.4 432 46.1V23.4L422.9 22.4V19.3C425.2 18.3 427.9 17.5 431 16.8C434.1 16.1 437 15.5 439.8 15H442.8V98.4L450.7 99.4V101.9C448.4 103 446 104 443.5 104.8C441 105.6 438.6 106.2 436.2 106.5H433.2L432.1 93.4H431.6ZM417.8 99.3C421.7 99.3 424.8 98.1 427.2 95.6C429.5 93.1 431.1 89.8 432 85.5V51.7C430.6 50.9 429 50.3 427.2 50C425.4 49.7 423 49.5 420.1 49.5C414.7 49.5 410.5 51.9 407.6 56.6C404.7 61.4 403.3 67.7 403.3 75.6C403.3 83.5 403.6 81.9 404.1 84.8C404.7 87.6 405.5 90.1 406.7 92.3C407.9 94.5 409.4 96.2 411.2 97.4C413 98.6 415.2 99.3 417.7 99.3H417.8Z" fill="white"/>
</g>
<defs>
<linearGradient id="paint0_linear_112_295260" x1="5.90039" y1="38.4002" x2="96.1" y2="69.1" gradientUnits="userSpaceOnUse">
<stop stop-color="#000B1F"/>
<stop offset="0.5" stop-color="#0057FF"/>
<stop offset="1" stop-color="#04CFFF"/>
</linearGradient>
<radialGradient id="paint1_radial_112_295260" cx="0" cy="0" r="1" gradientUnits="userSpaceOnUse" gradientTransform="translate(-68.6034 4.5864) rotate(22.6) scale(143.55 161.81)">
<stop stop-color="#D8FF70"/>
<stop offset="0.5" stop-color="#04CFFF"/>
<stop offset="1" stop-color="#0057FF"/>
</radialGradient>
<clipPath id="clip0_112_295260">
<rect width="451" height="122" fill="white"/>
</clipPath>
</defs>
</svg>
